<?xml version="1.0" standalone="no"?>
<!DOCTYPE svg PUBLIC "-//W3C//DTD SVG 20010904//EN"
 "http://www.w3.org/TR/2001/REC-SVG-20010904/DTD/svg10.dtd">
<svg version="1.0" xmlns="http://www.w3.org/2000/svg"
 width="2000.000000pt" height="2000.000000pt" viewBox="0 0 2000.000000 2000.000000"
 preserveAspectRatio="xMidYMid meet">

<g transform="translate(0.000000,2000.000000) scale(0.100000,-0.100000)"
fill="#000000" stroke="none">
<path d="M10070 14990 c0 -19 -4 -251 -10 -515 -5 -264 -11 -646 -15 -850 -3
-203 -8 -453 -11 -555 l-5 -185 304 -525 c754 -1302 897 -1552 897 -1560 0 -8
-148 -265 -940 -1635 -169 -291 -306 -531 -305 -533 2 -2 245 131 541 296 297
164 717 397 934 517 l396 220 917 1589 c505 874 916 1590 915 1591 -2 1 -199
-107 -438 -240 -1070 -593 -1326 -734 -1340 -739 -11 -4 -166 257 -610 1026
-1290 2238 -1230 2135 -1230 2098z"/>
<path d="M9340 12504 c-371 -206 -790 -438 -931 -515 l-255 -141 -916 -1587
c-504 -872 -915 -1588 -913 -1590 2 -2 158 82 347 187 189 104 587 325 886
491 299 166 547 301 550 301 4 -1 417 -711 917 -1579 501 -869 911 -1578 912
-1578 1 1 4 166 7 367 4 201 8 439 11 530 3 91 7 368 10 615 3 248 8 488 11
534 l5 83 -305 527 c-167 289 -437 757 -601 1040 -165 285 -295 521 -292 530
2 9 137 246 299 526 162 281 440 761 618 1068 177 307 321 560 319 562 -2 2
-308 -165 -679 -371z"/>
<path d="M8358 5139 c21 -6 36 -19 42 -35 6 -15 10 -193 10 -424 0 -231 -4
-409 -10 -424 -6 -16 -21 -29 -42 -35 -23 -7 50 -9 247 -8 236 2 286 5 317 19
64 29 82 74 92 228 4 68 3 75 -4 36 -24 -131 -65 -208 -133 -247 -39 -23 -53
-24 -224 -27 l-183 -4 0 445 c0 484 -3 459 57 477 19 6 -9 8 -87 8 -89 0 -108
-2 -82 -9z"/>
<path d="M9125 5138 c-40 -23 -46 -57 -15 -88 26 -26 90 -27 113 -2 53 58 -27
131 -98 90z"/>
<path d="M9398 5139 c21 -6 36 -19 42 -35 6 -14 10 -145 10 -292 0 -195 4
-281 14 -319 41 -153 152 -261 286 -278 l45 -5 -47 13 c-93 27 -161 92 -201
193 -27 70 -37 188 -37 443 0 269 -1 263 57 281 19 6 -9 8 -87 8 -89 0 -108
-2 -82 -9z"/>
<path d="M10128 5139 c21 -6 36 -19 42 -35 13 -32 12 -399 0 -526 -19 -200
-95 -316 -230 -352 -34 -9 -45 -15 -29 -15 65 -2 173 52 227 113 87 100 102
171 102 507 0 287 1 292 55 308 22 7 -2 9 -85 9 -89 0 -108 -2 -82 -9z"/>
<path d="M10758 4883 c6 -2 18 -2 25 0 6 3 1 5 -13 5 -14 0 -19 -2 -12 -5z"/>
<path d="M11263 4883 c9 -2 23 -2 30 0 6 3 -1 5 -18 5 -16 0 -22 -2 -12 -5z"/>
<path d="M9088 4869 c21 -6 36 -19 42 -35 6 -14 10 -144 10 -289 0 -145 -4
-275 -10 -289 -6 -16 -21 -29 -42 -35 -26 -7 -7 -9 82 -9 78 0 106 2 87 8 -59
18 -57 7 -57 325 0 318 -2 307 57 325 19 6 -9 8 -87 8 -89 0 -108 -2 -82 -9z"/>
<path d="M10438 4869 c21 -6 36 -19 42 -35 6 -14 10 -144 10 -289 0 -145 -4
-275 -10 -289 -6 -16 -21 -29 -42 -35 -26 -7 -7 -9 82 -9 85 0 107 2 84 9 -56
16 -57 20 -52 241 4 180 7 210 27 261 28 72 64 115 116 138 25 12 33 19 20 19
-29 0 -96 -34 -127 -64 -33 -32 -38 -32 -38 -2 0 27 17 44 57 56 19 6 -9 8
-87 8 -89 0 -108 -2 -82 -9z"/>
<path d="M10845 4866 c105 -47 144 -173 145 -468 0 -139 -7 -164 -52 -177 -26
-7 -7 -9 82 -9 85 0 107 2 84 9 -56 16 -57 20 -52 246 4 165 9 218 23 258 24
69 60 114 109 137 l41 19 -35 -5 c-50 -9 -121 -56 -149 -98 l-24 -37 -28 38
c-38 54 -113 102 -157 101 -10 -1 -5 -6 13 -14z"/>
<path d="M11360 4859 c25 -13 55 -39 68 -58 45 -69 53 -121 50 -352 l-3 -214
-35 -12 c-31 -10 -22 -12 80 -12 85 1 107 3 84 10 -17 5 -36 15 -42 21 -6 8
-12 98 -14 218 -5 229 -13 268 -73 338 -35 40 -77 65 -130 77 -24 6 -21 2 15
-16z"/>
</g>
</svg>
